name C:\Users\antoi\Documents\MyRepositories\upper-imu-dc\Results\main_tracking\Case_70\ABD01_linearAccelerations_bodyFrame.mot
datacolumns 4
datarows 47
range 4.56000000 5.02000000
endheader 
time	radius_imu_x	radius_imu_y	radius_imu_z	
          4.56000000	         -2.23307440	          1.03789354	          9.36428878	
          4.57000000	         -2.19656122	          0.95253831	          9.35339996	
          4.58000000	         -2.15861774	          0.86724822	          9.34520595	
          4.59000000	         -2.12144466	          0.78196644	          9.33885888	
          4.60000000	         -2.08644288	          0.69682436	          9.33481059	
          4.61000000	         -2.05501478	          0.61184405	          9.33248139	
          4.62000000	         -2.02823820	          0.52702018	          9.33097313	
          4.63000000	         -2.00672409	          0.44235078	          9.32945655	
          4.64000000	         -1.99055692	          0.35783740	          9.32730746	
          4.65000000	         -1.97930461	          0.27348547	          9.32417466	
          4.66000000	         -1.97206176	          0.18931511	          9.31998423	
          4.67000000	         -1.96747106	          0.10538857	          9.31499167	
          4.68000000	         -1.96384376	          0.02181916	          9.30975426	
          4.69000000	         -1.95942459	         -0.06125816	          9.30495533	
          4.70000000	         -1.95260772	         -0.14372665	          9.30123971	
          4.71000000	         -1.94198967	         -0.22551112	          9.29914906	
          4.72000000	         -1.92634069	         -0.30658066	          9.29910006	
          4.73000000	         -1.90462166	         -0.38693952	          9.30133207	
          4.74000000	         -1.87609417	         -0.46660508	          9.30590575	
          4.75000000	         -1.84066605	         -0.54561811	          9.31248062	
          4.76000000	         -1.79893565	         -0.62402240	          9.32037323	
          4.77000000	         -1.75177578	         -0.70181759	          9.32890248	
          4.78000000	         -1.70049760	         -0.77898638	          9.33740514	
          4.79000000	         -1.64688159	         -0.85552052	          9.34526403	
          4.80000000	         -1.59297035	         -0.93141574	          9.35210250	
          4.81000000	         -1.54088696	         -1.00668111	          9.35778394	
          4.82000000	         -1.49257479	         -1.08133684	          9.36246123	
          4.83000000	         -1.44968824	         -1.15543598	          9.36640495	
          4.84000000	         -1.41316904	         -1.22902324	          9.37026729	
          4.85000000	         -1.38374249	         -1.30220674	          9.37449359	
          4.86000000	         -1.36182943	         -1.37513140	          9.37934783	
          4.87000000	         -1.34695725	         -1.44785890	          9.38557897	
          4.88000000	         -1.33824464	         -1.52043987	          9.39354482	
          4.89000000	         -1.33476057	         -1.59289736	          9.40320313	
          4.90000000	         -1.33555593	         -1.66522914	          9.41392738	
          4.91000000	         -1.34010210	         -1.73744232	          9.42430919	
          4.92000000	         -1.34813577	         -1.80945406	          9.43325827	
          4.93000000	         -1.35834792	         -1.88126229	          9.43822432	
          4.94000000	         -1.36998260	         -1.95289145	          9.43694050	
          4.95000000	         -1.38179719	         -2.02430681	          9.42846706	
          4.96000000	         -1.39181637	         -2.09549284	          9.41259782	
          4.97000000	         -1.40025634	         -2.16670199	          9.38765794	
          4.98000000	         -1.40557644	         -2.23775588	          9.35494351	
          4.99000000	         -1.40732545	         -2.30876709	          9.31588942	
          5.00000000	         -1.40546701	         -2.37987986	          9.27093069	
          5.01000000	         -1.40013766	         -2.45101671	          9.22285494	
          5.02000000	         -1.39202333	         -2.52215024	          9.17353314	
